<svg width="120" height="120" viewBox="0 0 180 180" fill="none" xmlns="http://www.w3.org/2000/svg">
					<path fill-rule="evenodd" clip-rule="evenodd" d="M90 177C138.049 177 177 138.049 177 90C177 41.9512 138.049 3 90 3C41.9512 3 3 41.9512 3 90C3 138.049 41.9512 177 90 177ZM90 180C139.706 180 180 139.706 180 90C180 40.2944 139.706 0 90 0C40.2944 0 0 40.2944 0 90C0 139.706 40.2944 180 90 180Z" fill="#FE5514"></path>
					<path d="M153 22C153 25.866 149.866 29 146 29C142.134 29 139 25.866 139 22C139 18.134 142.134 15 146 15C149.866 15 153 18.134 153 22Z" fill="#FE5514"></path>
					<path fill-rule="evenodd" clip-rule="evenodd" d="M146 29C149.866 29 153 25.866 153 22C153 18.134 149.866 15 146 15C142.134 15 139 18.134 139 22C139 25.866 142.134 29 146 29ZM146 32C151.523 32 156 27.5228 156 22C156 16.4772 151.523 12 146 12C140.477 12 136 16.4772 136 22C136 27.5228 140.477 32 146 32Z" fill="white"></path>
					<path d="M27 144C27 147.866 23.866 151 20 151C16.134 151 13 147.866 13 144C13 140.134 16.134 137 20 137C23.866 137 27 140.134 27 144Z" fill="#FE5514"></path>
					<path fill-rule="evenodd" clip-rule="evenodd" d="M20 151C23.866 151 27 147.866 27 144C27 140.134 23.866 137 20 137C16.134 137 13 140.134 13 144C13 147.866 16.134 151 20 151ZM20 154C25.5228 154 30 149.523 30 144C30 138.477 25.5228 134 20 134C14.4772 134 10 138.477 10 144C10 149.523 14.4772 154 20 154Z" fill="white"></path>
					</svg>